#!OML:ASF X:\für Bonn\!DataBase\2005_08_10_Bjorn_Final\c3d\bjorn.ASF
:FULLY-SPECIFIED
:DEGREES
110
root 0.294982 18.9878 2.42258 -179.802 7.36263 -177.434
lowerback -7.03982 0.936373 4.00655
upperback 12.3275 1.78379 1.24699
thorax 18.0593 1.73932 -0.236561
lowerneck 11.0297 -5.54401 3.36485
upperneck 13.8213 -5.09307 -4.74778
head 2.33776 -1.79732 -2.00097
rclavicle 2.26615e-014 3.45885e-014
rhumerus -1503.97 -56.6776 1429.12
rradius 13.8777
rwrist 8.24466
rhand -26.9579 1.43569
rfingers 7.12502
rthumb -0.379443 -28.5437
lclavicle 2.26615e-014 3.45885e-014
lhumerus -89.3509 71.924 -14.0204
lradius 10.1315
lwrist -70.5751
lhand -21.8438 9.60368
lfingers 7.12502
lthumb 4.55961 39.5346
rfemur -11.5221 -3.60435 14.9023
rtibia 31.2257
rfoot -17.4539 13.5214
rtoes -21.4046
lfemur -7.62323 6.64901 -13.56
ltibia 31.8652
lfoot -18.1225 -6.89285
ltoes -4.70228
111
root 0.283256 19.0037 2.49187 -179.753 7.26847 -177.482
lowerback -6.32803 0.913145 4.12881
upperback 12.6341 1.88209 1.15757
thorax 17.9894 1.85508 -0.387135
lowerneck 9.48557 -5.40854 3.46591
upperneck 13.5894 -5.13699 -4.74178
head 2.51306 -1.90062 -2.05317
rclavicle 4.96962e-015 6.75868e-015
rhumerus -1506.07 -60.0912 1430.49
rradius 12.9474
rwrist 12.3414
rhand -26.6829 1.88641
rfingers 7.12502
rthumb -0.11386 -28.0933
lclavicle 4.96962e-015 6.75868e-015
lhumerus -86.7033 74.1536 -9.60338
lradius 10.0446
lwrist -71.7224
lhand -21.9451 9.32491
lfingers 7.12502
lthumb 4.46175 39.2579
rfemur -11.6942 -3.71096 14.8567
rtibia 31.0083
rfoot -17.1005 13.4776
rtoes -21.2705
lfemur -7.88768 6.63166 -13.6552
ltibia 31.7409
lfoot -17.8173 -6.93727
ltoes -4.35338
112
root 0.27294 19.0233 2.56093 -179.586 7.18463 -177.592
lowerback -5.75736 0.882956 4.17805
upperback 12.9599 1.98098 1.04949
thorax 18.0399 1.96499 -0.511809
lowerneck 7.8976 -5.22664 3.50535
upperneck 13.1586 -5.15995 -4.6444
head 2.63859 -2.00347 -2.06405
rclavicle -4.31363e-014 -1.74931e-014
rhumerus -1509.99 -63.9076 1433.9
rradius 12.0462
rwrist 18.0827
rhand -27.0298 2.08469
rfingers 7.12502
rthumb -0.448914 -27.8946
lclavicle -4.31363e-014 -1.74931e-014
lhumerus -76.1782 76.2096 2.71474
lradius 9.95158
lwrist -71.1961
lhand -21.9899 8.80912
lfingers 7.12502
lthumb 4.41854 38.743
rfemur -12.0127 -3.81246 14.7555
rtibia 30.7951
rfoot -16.7538 13.4242
rtoes -21.2244
lfemur -8.27787 6.56224 -13.8386
ltibia 31.5935
lfoot -17.4601 -6.97517
ltoes -3.71935
113
root 0.262698 19.0431 2.63333 -179.351 7.08983 -177.723
lowerback -5.1961 0.852983 4.19779
upperback 13.2498 2.07952 0.940434
thorax 18.0497 2.06819 -0.624578
lowerneck 6.47642 -5.02156 3.47372
upperneck 12.5148 -5.1663 -4.40746
head 2.6736 -2.09631 -2.00828
rclavicle 1.31198e-014 -9.93923e-015
rhumerus -1514.82 -67.3982 1438.14
rradius 11.2864
rwrist 24.2561
rhand -27.0128 1.96737
rfingers 7.12502
rthumb -0.432417 -28.0119
lclavicle 1.31198e-014 -9.93923e-015
lhumerus -61.9863 77.5942 18.4991
lradius 9.8486
lwrist -70.7633
lhand -21.9454 8.0133
lfingers 7.12502
lthumb 4.46145 37.9463
rfemur -12.4168 -3.97853 14.6414
rtibia 30.5747
rfoot -16.395 13.3798
rtoes -21.3154
lfemur -8.75456 6.55284 -14.0513
ltibia 31.4399
lfoot -17.1071 -7.02301
ltoes -3.3197
114
root 0.253714 19.0632 2.71095 -179.071 6.97889 -177.856
lowerback -4.5508 0.823607 4.19685
upperback 13.5084 2.18436 0.840011
thorax 17.961 2.16958 -0.721738
lowerneck 5.11248 -4.82099 3.40431
upperneck 11.7605 -5.17089 -4.14118
head 2.66662 -2.1847 -1.93299
rclavicle -3.43897e-014 -2.38542e-015
rhumerus -1520.01 -70.5152 1442.65
rradius 10.6937
rwrist 29.6099
rhand -26.5769 2.08615
rfingers 7.12502
rthumb -0.0114343 -27.8936
lclavicle -3.43897e-014 -2.38542e-015
lhumerus -45.0038 77.9643 36.8516
lradius 9.7414
lwrist -70.2356
lhand -21.981 7.27397
lfingers 7.12502
lthumb 4.42707 37.2077
rfemur -12.8839 -4.10501 14.5364
rtibia 30.3625
rfoot -16.0129 13.3062
rtoes -21.2441
lfemur -9.29693 6.59289 -14.2585
ltibia 31.2791
lfoot -16.7366 -7.12829
ltoes -3.00062
115
root 0.245619 19.0843 2.79217 -178.775 6.83076 -177.946
lowerback -3.7718 0.785236 4.20434
upperback 13.6816 2.26359 0.770708
thorax 17.6674 2.24956 -0.807578
lowerneck 3.91687 -4.64279 3.30921
upperneck 10.9892 -5.16735 -3.89076
head 2.62779 -2.2572 -1.85358
rclavicle 1.11319e-014 1.78906e-014
rhumerus -1523.39 -73.08 1445.2
rradius 10.2066
rwrist 34.0265
rhand -26.3047 2.47494
rfingers 7.12502
rthumb 0.251425 -27.5047
lclavicle 1.11319e-014 1.78906e-014
lhumerus -28.8417 77.0989 54.1946
lradius 9.70004
lwrist -69.5546
lhand -21.8345 6.52425
lfingers 7.12502
lthumb 4.56862 36.455
rfemur -13.3636 -4.23337 14.4904
rtibia 30.1453
rfoot -15.6333 13.1885
rtoes -21.2786
lfemur -9.87555 6.60598 -14.4087
ltibia 31.1304
lfoot -16.3366 -7.28027
ltoes -2.38925
116
root 0.236976 19.1058 2.87513 -178.423 6.6727 -178.059
lowerback -2.98822 0.765193 4.20425
upperback 13.7598 2.34498 0.695473
thorax 17.2489 2.31801 -0.905626
lowerneck 2.87718 -4.52018 3.27291
upperneck 10.3279 -5.18006 -3.7739
head 2.59516 -2.32214 -1.82618
rclavicle 4.31363e-014 7.15625e-015
rhumerus -1514.22 -74.8708 1434.77
rradius 9.76246
rwrist 35.3121
rhand -26.1285 2.60773
rfingers 7.12502
rthumb 0.421627 -27.3716
lclavicle 4.31363e-014 7.15625e-015
lhumerus -16.0342 75.2094 67.9653
lradius 9.66184
lwrist -68.7245
lhand -21.5154 5.72952
lfingers 7.12502
lthumb 4.87666 35.6534
rfemur -13.9112 -4.37192 14.4222
rtibia 29.9314
rfoot -15.2493 13.0602
rtoes -21.2529
lfemur -10.53 6.62973 -14.5999
ltibia 30.9817
lfoot -15.9567 -7.38258
ltoes -2.22655
117
root 0.229539 19.1272 2.95808 -178.038 6.52753 -178.192
lowerback -2.25319 0.749213 4.14863
upperback 13.8078 2.42051 0.654582
thorax 16.8219 2.36818 -0.93683
lowerneck 1.88304 -4.40815 3.09763
upperneck 9.78769 -5.17664 -3.63497
head 2.60096 -2.37223 -1.76919
rclavicle 2.38542e-015 -1.98785e-015
rhumerus -1502.41 -76.1204 1421.93
rradius 9.36657
rwrist 36.6209
rhand -25.9321 3.11883
rfingers 7.12502
rthumb 0.611338 -26.86
lclavicle 2.38542e-015 -1.98785e-015
lhumerus -6.43026 72.7368 78.4111
lradius 9.59943
lwrist -68.1162
lhand -21.63 5.27534
lfingers 7.12502
lthumb 4.76601 35.2017
rfemur -14.4988 -4.52425 14.3394
rtibia 29.7029
rfoot -14.8227 12.9472
rtoes -21.2148
lfemur -11.2173 6.6933 -14.8084
ltibia 30.8342
lfoot -15.5694 -7.57453
ltoes -1.88657
